<svg version="1" xmlns="http://www.w3.org/2000/svg" width="401.333" height="401.333" viewBox="0 0 301.000000 301.000000"><path d="M60.5 24.4C54.3 27.2 50 33.6 50 39.9c0 3.6 2.8 11.1 4.2 11.1.5 0 .6.4.3 1-.3.5-.1 1 .5 1s1.8.6 2.6 1.4c1.2 1.3 1.4 7.8 1.2 41.8l-.3 40.3-22.8.2c-22.4.2-22.8.2-27.1 2.7-2.9 1.7-5 3.9-6.3 6.7-1.9 4.1-2 6.5-1.9 61.3.1 55.2.2 57.2 2.1 60.1 2.9 4.4 4 5.4 8.2 7.2 3.4 1.4 17.2 1.6 139.8 1.5 74.8-.1 136.7-.2 137.5-.4 4.3-.9 9.2-5 11.1-9.2 1.8-4.3 1.9-7 1.9-60.6-.1-53.1-.2-56.4-2-59.9-1-2-2.7-4.3-3.7-5.1-5.1-4-6.1-4.2-27.9-4.2H246V55.5l3-1.7c3.7-2.1 6.9-8.8 7-14.2 0-8-8.4-16.6-16.2-16.6-13.3 0-21.5 14.4-14.8 25.8 1.2 2 3.1 4.2 4.1 5 1.8 1.3 1.9 3.2 1.9 42.2v40.9l-78.5-.1H74V95.9c0-22.9.4-40.9.9-40.9 2.1 0 7-6.5 8-10.6 3.4-13.5-10.1-25.5-22.4-20z"/></svg>