<svg class="icon" viewBox="0 0 301 254" fill="none" xmlns="http://www.w3.org/2000/svg"><path d="M284.191 113.752H17.117c-9.283 0-16.809 7.526-16.809 16.809v105.833c0 9.284 7.526 16.809 16.81 16.809H284.19c9.283 0 16.809-7.525 16.809-16.809V130.561c0-9.283-7.526-16.809-16.809-16.809zM73.945 23.58H58.938v90.172h15.007V23.58zM246.015 23.58h-15.006v90.172h15.006V23.58z" fill="#462EB4"/><path opacity=".3" d="M277.032 135.541H24.277v95.873h252.755v-95.873zM277.032 231.801H24.277v2.614h252.755v-2.614z" fill="#1B2229"/><path d="M218.201 220.341c19.254 0 34.863-15.608 34.863-34.862 0-19.255-15.609-34.863-34.863-34.863-19.254 0-34.863 15.608-34.863 34.863 0 19.254 15.609 34.862 34.863 34.862z" fill="#2ECC71"/><path opacity=".15" d="M218.201 220.341c19.254 0 34.863-15.608 34.863-34.862 0-19.255-15.609-34.863-34.863-34.863-19.254 0-34.863 15.608-34.863 34.863 0 19.254 15.609 34.862 34.863 34.862z" fill="#1B2229"/><path d="M253.039 182.887c-1.326 18.043-16.386 32.27-34.768 32.27s-33.442-14.227-34.768-32.27c1.326-18.044 16.386-32.271 34.768-32.271s33.442 14.227 34.768 32.271zM84.875 220.341c19.254 0 34.862-15.608 34.862-34.862 0-19.255-15.608-34.863-34.862-34.863-19.255 0-34.863 15.608-34.863 34.863 0 19.254 15.608 34.862 34.863 34.862z" fill="#2ECC71"/><path opacity=".15" d="M84.875 220.341c19.254 0 34.862-15.608 34.862-34.862 0-19.255-15.608-34.863-34.862-34.863-19.255 0-34.863 15.608-34.863 34.863 0 19.254 15.608 34.862 34.863 34.862z" fill="#1B2229"/><path d="M119.713 182.887c-1.326 18.043-16.386 32.27-34.768 32.27s-33.442-14.227-34.768-32.27c1.326-18.044 16.386-32.271 34.768-32.271s33.442 14.227 34.768 32.271z" fill="#2ECC71"/><circle opacity=".3" cx="239.233" cy="18.237" r="16.848" fill="#1B2229"/><circle cx="239.233" cy="16.941" r="16.848" fill="#462EB4"/><circle opacity=".3" cx="66.86" cy="18.237" r="16.848" fill="#1B2229"/><circle cx="66.86" cy="16.941" r="16.848" fill="#462EB4"/></svg>